<svg id="Layer_1" enable-background="new 0 0 512 512" height="512" viewBox="0 0 512 512" width="512" xmlns="http://www.w3.org/2000/svg"><g><g><path d="m234.757 156.891c.334 4.669 5.008 7.946 9.513 6.683 2.092-.587 3.859-2.095 4.774-4.065 1.074-2.313.593-4.811.317-7.245-1.361-12.043-3.641-32.198 24.992-41.75 18.078-6.048 29.969-19.173 34.387-37.955 3.21-13.645 1.24-25.539 1.155-26.038-.696-4.073-4.556-6.811-8.631-6.121-4.076.684-6.829 4.548-6.158 8.626.247 1.499 5.683 36.826-25.506 47.262-40.149 13.393-36.513 45.555-35.144 57.662.132 1.169.246 2.177.301 2.941z"/><path d="m305.4 117.066c-26.703 8.913-24.166 30.973-23.333 38.222.278 2.419.553 4.595 2.372 6.396 1.604 1.587 3.88 2.377 6.123 2.124 2.226-.251 4.258-1.518 5.469-3.402 1.377-2.144 1.216-4.41.938-6.83-1.043-9.075-.821-17.607 13.188-22.283 23.03-7.714 25.474-30.958 23.548-42.171-.698-4.066-4.547-6.79-8.619-6.108-4.071.677-6.827 4.535-6.171 8.609.327 2.03 2.724 20.003-13.515 25.443z"/><path d="m178.491 156.919c.335 4.45 4.637 7.687 9.007 6.777 2.048-.426 3.853-1.716 4.922-3.515 1.246-2.096 1.068-4.284.8-6.607-1.043-9.075-.82-17.607 13.188-22.283 23.03-7.714 25.474-30.958 23.548-42.171-.701-4.082-4.572-6.825-8.661-6.122-4.082.701-6.823 4.578-6.122 8.661.138.806 3.198 19.806-13.522 25.406-26.703 8.913-24.166 30.973-23.333 38.222.073.622.138 1.17.173 1.632z"/><path d="m498.037 364.832h-10.853c.197-1.44.296-2.894.296-4.349 0-12.369-7.083-23.491-17.83-28.891-.001-7.482-2.564-14.374-6.851-19.856 14.901-10.673 25.792-26.241 31.078-44.767 2.852-9.911.147-15.033-9.646-18.266-21.356-7.057-43.609-5.562-62.852 4.132-.06-.623-.121-1.245-.195-1.868-2.751-23.865-15.23-45.351-35.141-60.501-8.676-6.598-14.491-5.923-21.457 2.49-10.89 13.154-17.774 28.606-20.122 44.71-5.722-4.908-13.112-7.825-21.015-7.825-4.084 0-8.07.756-11.787 2.215-5.997-6.002-14.153-9.443-22.853-9.443-3.312 0-6.611.517-9.756 1.516-9.688-8.344-25.308-11.451-46.599-9.241-3.856.412-7.885.916-12.008 1.5-.306-.133-.61-.269-.924-.381-13.162-4.624-31.162-5.343-46.978-1.873-19.828 4.35-34.888 14.842-42.406 29.544-.31.602-.611 1.209-.914 1.814-14.916 9.188-24.673 19.848-29.055 31.739-6.16.564-12.071 2.892-16.919 6.694-5.511 3.854-9.655 9.314-11.905 15.535-16.28 1.66-29.026 15.438-29.026 32.136v.005c-10.747 5.401-17.83 16.517-17.83 28.881 0 1.457.1 2.91.297 4.349h-10.823c-7.699.001-13.963 6.266-13.963 13.965v21.118c0 19.329 15.725 35.054 35.053 35.054h4.547v10.869c0 14.265 11.604 25.869 25.869 25.869h381.063c14.264 0 25.869-11.604 25.869-25.869v-10.869h4.519c19.344 0 35.081-15.725 35.081-35.054v-21.118c-.001-7.699-6.265-13.964-13.964-13.964zm-76.774-94.616c1.841-1.235 3.736-2.377 5.674-3.397 15.912-8.42 34.552-9.807 52.499-3.902-4.788 16.715-15.051 30.458-29.089 39.115-3.028-1.336-6.295-2.227-9.722-2.573-2.246-6.211-6.377-11.668-11.869-15.526-2.692-2.113-5.715-3.765-8.924-4.919.631-2.917 1.108-5.851 1.431-8.798zm-45.122-67.691c.135-.163.261-.313.378-.452.138.103.286.214.443.334 16.628 12.653 27.042 30.51 29.323 50.297.899 7.655.538 15.301-1.05 22.817-4.771-7.022-12.121-11.908-20.55-13.521-5.467-9.224-15.177-15.155-26.015-15.742.847-15.677 6.903-30.969 17.471-43.733zm-233.295 49.272c.212-.418.436-.859.67-1.33 12.861-25.068 52.74-26.594 70.792-20.392 8.946 3.931 12.976 10.257 12.221 14.254-.716 3.796-6.645 8.397-20.999 8.876-16.105.547-23.808 7.64-29.432 12.818-1.799 1.657-3.354 3.089-4.889 4.042-7.016 4.361-13.898 2.772-17.376 1.438-5.383-2.067-9.781-6.163-10.943-10.188-1.767-6.129-1.637-6.385-.044-9.518zm-90.554 91.973c3.848-1.041 6.208-4.911 5.374-8.809-.229-1.067-.344-2.199-.344-3.363 0-9.541 7.775-17.304 17.332-17.304.516 0 1.089.033 1.751.102 4.023.421 7.637-2.42 8.198-6.416.671-4.771 3.355-9.088 7.365-11.843.148-.102.293-.209.434-.321 1.357-1.083 2.844-1.939 4.427-2.556-.455 8.483 1.527 15.736 5.883 21.092 5.24 6.441 13.385 9.487 22.933 8.583 1.905-.18 3.855-.467 5.921-.771 10.868-1.601 22.106-3.256 32.727 8.441 8.876 9.763 23.467 15.743 40.033 16.41 15.756.622 31.089-3.456 42.073-11.221 3.382-2.391 4.186-7.071 1.795-10.453-2.391-3.383-7.071-4.187-10.454-1.795-15.991 11.303-48.553 12.142-62.345-3.027-15.994-17.617-34.06-14.955-46.015-13.195-1.866.275-3.628.535-5.148.678-4.524.435-7.851-.617-9.883-3.115-3.264-4.013-3.477-11.686-.584-21.045 2.108-6.806 6.95-13.282 14.439-19.34.087.317.179.643.274.973 2.475 8.575 10.13 16.251 19.978 20.033 10.345 3.973 21.525 2.985 30.668-2.7 2.736-1.698 4.973-3.758 7.136-5.749 4.954-4.563 9.233-8.503 19.774-8.86 29.185-.975 34.347-16.386 35.234-21.086 1.138-6.031-.438-12.158-4.18-17.584 17.645-1.374 29.977 1.788 34.893 9.008 4.809 7.061 3.278 19.378-4.2 33.794-3.905 7.532-11.583 23.541-12.446 25.319-1.811 3.726-.258 8.213 3.468 10.023 3.725 1.81 8.214.257 10.024-3.469.875-1.8 8.473-17.646 12.271-24.969 8.261-15.924 10.619-30.354 6.963-41.604.25-.011.5-.016.751-.016 5.922 0 11.375 2.976 14.588 7.959 1.092 1.694 2.82 2.878 4.795 3.283 1.975.404 4.029 0 5.701-1.128 2.801-1.888 6.105-2.886 9.556-2.886 7.766 0 14.63 5.24 16.692 12.744.57 2.073 2.003 3.803 3.935 4.748s4.176 1.015 6.164.194c2.133-.883 4.373-1.33 6.657-1.33 7.01 0 13.284 4.177 15.984 10.642 1.114 2.668 3.662 4.457 6.549 4.601 7.043.349 13.111 4.902 15.46 11.602 1.314 3.748 5.32 5.818 9.139 4.729 1.566-.447 3.2-.675 4.855-.675 3.962 0 7.666 1.286 10.712 3.718.136.108.276.213.419.312 4.001 2.763 6.68 7.082 7.351 11.853.562 3.996 4.187 6.836 8.198 6.416.663-.068 1.245-.102 1.78-.102 9.541 0 17.303 7.763 17.303 17.304 0 1.159-.115 2.333-.342 3.488-.757 3.861 1.598 7.651 5.395 8.683 7.523 2.042 12.777 8.915 12.777 16.715 0 1.485-.184 2.938-.55 4.349h-431.886c-.368-1.405-.553-2.858-.553-4.349 0-7.802 5.264-14.675 12.801-16.715zm444.708 56.144c0 11.058-9.008 20.054-20.081 20.054h-201.771c-4.142 0-7.5 3.357-7.5 7.5s3.358 7.5 7.5 7.5h182.252v10.869c0 5.993-4.875 10.869-10.869 10.869h-381.062c-5.993 0-10.869-4.876-10.869-10.869v-10.869h185.682c4.142 0 7.5-3.357 7.5-7.5s-3.358-7.5-7.5-7.5h-205.229c-11.057 0-20.053-8.996-20.053-20.054v-20.082h482z"/><path d="m310.074 289.561c2.257-2.258 5.262-3.501 8.458-3.501 3.197 0 6.202 1.243 8.459 3.501 1.465 1.465 3.384 2.197 5.304 2.197s3.839-.732 5.303-2.196c2.929-2.929 2.929-7.678 0-10.606-5.091-5.092-11.862-7.896-19.066-7.896s-13.975 2.804-19.066 7.896c-2.929 2.929-2.928 7.678 0 10.606 2.93 2.928 7.678 2.929 10.608-.001z"/><path d="m394.005 344.031c1.919 0 3.839-.732 5.304-2.197 2.257-2.258 5.261-3.501 8.458-3.501s6.201 1.243 8.458 3.501c2.929 2.93 7.678 2.929 10.607.001 2.929-2.929 2.929-7.678 0-10.606-5.091-5.092-11.862-7.896-19.066-7.896s-13.975 2.804-19.066 7.896c-2.929 2.929-2.928 7.678.001 10.606 1.466 1.463 3.385 2.196 5.304 2.196z"/><path d="m280.05 335.91c1.461 1.461 3.371 2.189 5.282 2.189 1.92 0 3.842-.736 5.31-2.204 2.929-2.929 2.915-7.691-.014-10.621-2.929-2.928-7.678-2.928-10.606 0-2.929 2.93-2.929 7.678 0 10.607z"/><path d="m83.636 343.676c1.461 1.461 3.371 2.189 5.282 2.189 1.92 0 3.842-.736 5.31-2.204 2.929-2.929 2.915-7.691-.014-10.621-2.929-2.928-7.678-2.928-10.606 0-2.929 2.93-2.929 7.678 0 10.607z"/><path d="m363.277 314.874c4.142 0 7.5-3.371 7.5-7.514s-3.358-7.5-7.5-7.5-7.5 3.357-7.5 7.5v.028c0 4.144 3.358 7.486 7.5 7.486z"/><path d="m327.938 330.621c-2.904 2.954-2.863 7.702.091 10.606l.029.028c1.457 1.432 3.347 2.145 5.236 2.145 1.942 0 3.884-.753 5.355-2.25 2.904-2.953 2.849-7.716-.105-10.62-2.954-2.905-7.702-2.864-10.606.091z"/></g></g></svg>