<?xml version="1.0" encoding="iso-8859-1"?>
<!-- Generator: Adobe Illustrator 19.0.0, SVG Export Plug-In . SVG Version: 6.00 Build 0)  -->
<svg version="1.1" id="Capa_1" xmlns="http://www.w3.org/2000/svg" xmlns:xlink="http://www.w3.org/1999/xlink" x="0px" y="0px"
	 viewBox="0 0 496 496" style="enable-background:new 0 0 496 496;" xml:space="preserve">
<g>
	<g>
		<g>
			<path d="M160,80c13.232,0,24-10.768,24-24s-10.768-24-24-24h-16V0h-16v32h-16c-13.232,0-24,10.768-24,24s10.768,24,24,24h16v16
				H88v48h40v16.72c-22.664,3.824-40,23.536-40,47.28s17.336,43.448,40,47.28V272h-16c-13.232,0-24,10.768-24,24v48
				c0,13.232,10.768,24,24,24h16v48.808c-18.232,3.72-32,19.872-32,39.192c0,22.056,17.944,40,40,40c22.056,0,40-17.944,40-40
				c0-19.312-13.768-35.472-32-39.192V368h16c13.232,0,24-10.768,24-24v-48c0-13.232-10.768-24-24-24h-16v-16.72
				c22.664-3.824,40-23.536,40-47.28s-17.336-43.448-40-47.28V144h40V96h-40V80H160z M160,456c0,13.232-10.768,24-24,24
				s-24-10.768-24-24s10.768-24,24-24S160,442.768,160,456z M160,288c4.416,0,8,3.584,8,8v48c0,4.416-3.584,8-8,8h-48
				c-4.416,0-8-3.584-8-8v-48c0-4.416,3.584-8,8-8H160z M168,208c0,17.648-14.352,32-32,32s-32-14.352-32-32s14.352-32,32-32
				S168,190.352,168,208z M168,112v16h-64v-16H168z M112,64c-4.416,0-8-3.584-8-8s3.584-8,8-8h48c4.416,0,8,3.584,8,8s-3.584,8-8,8
				H112z"/>
			<path d="M256,32.72V0h-16v32.72c-22.664,3.824-40,23.536-40,47.28v16c0,23.736,17.336,43.448,40,47.28V160h-11.88L200,188.12
				v39.768L228.12,256H240v25.576l-20.456,8.768C207.672,295.44,200,307.08,200,320c0,12.92,7.672,24.56,19.552,29.656l20.448,8.76
				v58.392c-18.232,3.72-32,19.872-32,39.192c0,22.056,17.944,40,40,40c22.056,0,40-17.944,40-40c0-19.312-13.768-35.472-32-39.192
				V365.28l1.088,0.464c3.488,1.496,7.192,2.256,11,2.256C283.48,368,296,355.48,296,340.088V299.92
				c0-15.4-12.52-27.92-27.912-27.92c-3.808,0-7.504,0.76-11,2.256L256,274.72V256h11.88L296,227.88v-39.768L267.88,160H256v-16.72
				c22.664-3.824,40-23.536,40-47.28V80C296,56.264,278.664,36.552,256,32.72z M272,456c0,13.232-10.768,24-24,24s-24-10.768-24-24
				s10.768-24,24-24S272,442.768,272,456z M263.392,288.96c1.488-0.64,3.072-0.96,4.696-0.96c6.568,0,11.912,5.344,11.912,11.912
				v40.168c0,6.576-5.344,11.92-11.912,11.92c-1.624,0-3.2-0.32-4.696-0.96l-37.528-16.088c-6-2.568-9.864-8.44-9.864-14.952
				c0-6.512,3.864-12.384,9.848-14.952L263.392,288.96z M261.256,176L280,194.744v26.512L261.256,240h-26.512L216,221.256v-26.512
				L234.744,176H261.256z M280,96c0,17.648-14.352,32-32,32s-32-14.352-32-32V80c0-17.648,14.352-32,32-32s32,14.352,32,32V96z"/>
			<path d="M408,320V80c0-23.736-17.336-43.448-40-47.28V0h-16v32.72c-22.664,3.824-40,23.536-40,47.28v240
				c0,23.736,17.336,43.448,40,47.28v49.528c-18.232,3.72-32,19.872-32,39.192c0,22.056,17.944,40,40,40c22.056,0,40-17.944,40-40
				c0-19.312-13.768-35.472-32-39.192V367.28C390.664,363.448,408,343.736,408,320z M384,456c0,13.232-10.768,24-24,24
				s-24-10.768-24-24s10.768-24,24-24S384,442.768,384,456z M360,352c-17.648,0-32-14.352-32-32V80c0-17.648,14.352-32,32-32
				s32,14.352,32,32v40h-32v16h32v32h-32v16h32v32h-32v16h32v32h-32v16h32v40C392,337.648,377.648,352,360,352z"/>
		</g>
	</g>
</g>
<g>
</g>
<g>
</g>
<g>
</g>
<g>
</g>
<g>
</g>
<g>
</g>
<g>
</g>
<g>
</g>
<g>
</g>
<g>
</g>
<g>
</g>
<g>
</g>
<g>
</g>
<g>
</g>
<g>
</g>
</svg>
