<svg id="Capa_1" enable-background="new 0 0 510.148 510.148" height="512" viewBox="0 0 510.148 510.148" width="512" xmlns="http://www.w3.org/2000/svg"><g><path d="m384.699 366.595h43.127c45.393 0 82.321-36.929 82.321-82.321 0-45.393-36.929-82.322-82.321-82.322h-367.208v60.813h-44.784v50.448c1.668 43.581 17.386 74.582 59.692 99.377h-75.238c-3.185 31.488 20.384 60.401 52.69 60.19-.001 0 292.115 0 292.115 0v-15h-292.115c-18.215 0-33.453-12.989-36.94-30.19 36.925-.134 128.701.211 164.323.231v-.231h285.063c-9.474 38.209-45.631 29.255-75.329 30.19v15h38.388c32.302.211 55.882-28.705 52.69-60.19h-132.707c14.721-13.266 26.932-28.843 36.233-45.995zm43.127-149.643c88.79 2.346 88.742 132.322-.002 134.643h-35.535c1.71-3.956 3.619-8.878 5.452-14.655h30.579c53.155.311 72.101-72.079 25.759-97.91l-7.391 13.053c33.075 18.446 19.551 70.075-18.369 69.857h-26.567c5.287-20.022 3.995-53.309 4.086-74.678 4.505.137 24.301-.392 28.375.461l2.342-14.816c-5.639-1.134-24.718-.486-30.717-.645v-15.31zm-247.465 195.638c-.233-18.037 1.446-44.876-3.81-62.121l-14.399 5.449c4.201 13.986 3.159 31.697 3.208 46.296l-29.549-29.549v-42.8h-15v27.8l-33.831-33.831-10.607 10.606 32.925 32.924h-25.986v15h40.986l30.224 30.224c-64.502 7.25-122.963-34.241-123.688-102.258v-32.566c55.205-3.512 102.022 7.97 126.445 62.528l13.811-5.854c-16.778-39.587-53.417-66.431-95.472-70.982v-46.506h315v67.3c-1.397 29.511-6.745 58.444-23.797 82.343 0 0-24.786 33.503-42.237 45.995h-144.223z"/><path d="m360.094 457.781h15v15h-15z"/><path d="m90.383 232.262h15v15h-15z"/><path d="m120.383 232.262h15v15h-15z"/><path d="m58.252 305.585h15v15.255h-15z" transform="matrix(.707 -.707 .707 .707 -202.216 138.232)"/><path d="m169.17 157.441h33.788c16.501 0 29.925 13.424 29.925 29.925h15c0-24.771-20.153-44.925-44.925-44.925h-33.788c-14.495 0-26.287-11.792-26.287-26.288s11.792-26.288 26.287-26.288h131.213c28.948 0 52.5-23.551 52.5-52.5h-15c0 20.678-16.822 37.5-37.5 37.5h-131.213c-54.414 1.413-54.454 81.154 0 82.576z"/></g></svg>